<?xml version="1.0" standalone="no"?>
<!DOCTYPE svg PUBLIC "-//W3C//DTD SVG 20010904//EN"
 "http://www.w3.org/TR/2001/REC-SVG-20010904/DTD/svg10.dtd">
<svg version="1.0" xmlns="http://www.w3.org/2000/svg"
 width="518.000000pt" height="518.000000pt" viewBox="0 0 518.000000 518.000000"
 preserveAspectRatio="xMidYMid meet">
<metadata>
Created by potrace 1.11, written by Peter Selinger 2001-2013
</metadata>
<g transform="translate(0.000000,518.000000) scale(0.100000,-0.100000)"
fill="#000000" stroke="none">
<path d="M2429 4926 c-2 -2 -159 -9 -349 -15 -190 -7 -385 -16 -435 -22 -49
-5 -137 -14 -195 -19 -201 -18 -410 -59 -410 -81 0 -5 -18 -9 -40 -9 -22 0
-40 -4 -40 -10 0 -5 -9 -10 -20 -10 -11 0 -20 -4 -20 -10 0 -5 -11 -10 -25
-10 -14 0 -30 -9 -37 -20 -7 -11 -21 -20 -30 -20 -10 0 -18 -4 -18 -10 0 -5
-7 -10 -15 -10 -8 0 -15 -4 -15 -10 0 -5 -7 -10 -16 -10 -18 0 -44 -23 -44
-40 0 -6 -20 -31 -45 -56 -25 -24 -45 -49 -45 -54 0 -6 -7 -10 -15 -10 -8 0
-15 -7 -15 -15 0 -19 -20 -55 -42 -76 -10 -9 -18 -24 -18 -33 0 -9 -9 -21 -20
-28 -15 -10 -20 -24 -20 -58 0 -34 -5 -49 -20 -60 -12 -9 -20 -26 -20 -44 0
-16 -8 -36 -18 -45 -25 -23 -45 -65 -40 -87 2 -11 -7 -30 -20 -43 -17 -17 -23
-32 -20 -52 3 -18 -2 -31 -13 -40 -10 -7 -20 -32 -24 -61 -4 -29 -12 -48 -20
-48 -7 0 -18 -25 -26 -60 -7 -33 -16 -60 -19 -60 -11 0 -30 -49 -30 -75 0 -14
-9 -30 -20 -37 -21 -14 -28 -58 -8 -58 6 0 21 -9 32 -19 12 -11 49 -25 82 -32
53 -11 69 -10 110 3 34 11 50 22 54 36 3 12 12 30 21 40 9 10 22 33 30 50 8
18 17 32 20 32 3 0 17 21 30 48 13 26 34 58 47 72 13 14 28 37 34 53 5 15 15
27 22 27 6 0 18 10 26 22 30 45 133 138 152 138 12 0 28 8 37 18 9 11 28 22
43 25 15 4 34 14 42 22 9 9 44 21 78 27 35 6 68 14 73 19 24 19 152 30 315 27
l175 -3 3 -27 c3 -28 3 -28 -57 -28 -34 0 -61 -4 -61 -10 0 -5 -20 -10 -45
-10 -25 0 -45 -4 -45 -10 0 -5 -13 -10 -30 -10 -16 0 -30 -4 -30 -10 0 -5 -16
-10 -35 -10 -19 0 -35 -4 -35 -10 0 -5 -13 -10 -30 -10 -16 0 -30 -4 -30 -10
0 -5 -9 -10 -20 -10 -11 0 -20 -4 -20 -10 0 -5 -9 -10 -20 -10 -11 0 -20 -4
-20 -10 0 -5 -7 -10 -15 -10 -8 0 -15 -4 -15 -10 0 -5 -11 -10 -25 -10 -14 0
-25 -4 -25 -10 0 -5 -7 -10 -15 -10 -8 0 -15 -4 -15 -10 0 -5 -7 -10 -15 -10
-8 0 -15 -4 -15 -10 0 -5 -9 -10 -20 -10 -11 0 -20 -4 -20 -8 0 -5 -12 -15
-27 -23 -16 -8 -38 -23 -49 -34 -12 -11 -41 -36 -65 -55 -57 -45 -319 -307
-319 -319 0 -4 -16 -26 -35 -47 -19 -21 -35 -43 -35 -50 0 -7 -3 -14 -7 -16
-12 -5 -46 -56 -79 -118 -16 -30 -32 -56 -36 -58 -5 -2 -8 -12 -8 -23 0 -10
-4 -19 -10 -19 -5 0 -10 -9 -10 -20 0 -11 -4 -20 -10 -20 -5 0 -10 -13 -10
-30 0 -16 -4 -30 -10 -30 -5 0 -10 -7 -10 -15 0 -8 -4 -23 -9 -33 -13 -26 -31
-86 -31 -105 0 -9 -4 -17 -10 -17 -6 0 -10 -70 -10 -190 0 -104 4 -190 9 -190
8 0 15 -22 28 -97 3 -18 8 -33 12 -33 3 0 12 -15 20 -33 34 -82 70 -145 121
-208 90 -111 135 -159 149 -159 5 0 13 -9 16 -20 3 -11 13 -20 21 -20 8 0 14
-4 14 -10 0 -5 7 -10 15 -10 8 0 15 -4 15 -10 0 -5 7 -10 15 -10 8 0 14 -5 12
-11 -1 -7 13 -16 31 -21 17 -5 32 -13 32 -18 0 -6 7 -10 15 -10 8 0 15 -4 15
-10 0 -5 9 -10 20 -10 11 0 20 -4 20 -10 0 -5 8 -10 18 -10 9 0 28 -9 42 -20
14 -11 35 -20 48 -20 12 0 22 -4 22 -9 0 -5 9 -11 20 -14 20 -5 29 -37 10 -37
-5 0 -10 -6 -10 -12 -1 -14 -55 -78 -66 -78 -12 0 -33 -34 -34 -53 0 -10 -11
-29 -25 -43 -14 -14 -25 -29 -25 -34 0 -5 -11 -21 -26 -35 -14 -14 -31 -40
-39 -58 -7 -17 -25 -45 -39 -62 -14 -16 -26 -37 -26 -46 0 -8 -9 -25 -20 -37
-11 -12 -20 -28 -20 -36 0 -8 -4 -18 -10 -21 -6 -3 -10 -26 -10 -50 0 -24 -4
-47 -10 -50 -5 -3 -10 -28 -10 -56 0 -27 5 -49 10 -49 6 0 10 -24 10 -54 0
-30 5 -58 10 -61 6 -3 10 -17 10 -31 0 -13 5 -24 10 -24 6 0 10 -7 10 -15 0
-8 5 -15 10 -15 6 0 10 -12 10 -26 0 -17 14 -39 40 -64 22 -21 40 -46 40 -54
0 -9 8 -16 18 -16 10 0 24 -9 32 -20 8 -11 20 -20 27 -20 7 0 13 -4 13 -10 0
-5 8 -10 18 -10 10 0 24 -9 32 -20 8 -11 25 -20 37 -20 13 0 23 -4 23 -10 0
-5 11 -10 25 -10 14 0 25 -4 25 -10 0 -5 20 -10 45 -10 25 0 45 -4 45 -10 0
-13 167 -13 175 0 3 6 22 10 41 10 19 0 34 5 34 10 0 6 9 10 20 10 11 0 20 5
20 10 0 6 12 10 26 10 26 0 58 23 47 34 -4 3 3 6 15 6 12 0 22 5 22 10 0 6 8
10 18 10 10 0 24 9 32 20 8 11 20 20 27 20 6 0 15 9 18 20 3 11 12 20 18 20 7
0 21 14 32 30 11 16 23 30 28 30 4 0 7 7 7 15 0 19 20 55 43 76 9 9 17 25 17
36 0 11 9 28 20 38 11 10 20 29 20 42 0 21 16 60 30 73 4 3 12 25 19 50 7 25
21 64 32 87 10 24 19 63 19 87 0 25 4 48 10 51 5 3 10 17 10 31 0 13 4 24 10
24 5 0 10 33 12 72 3 69 4 73 31 82 19 7 37 7 57 -1 19 -7 30 -8 30 -2 0 6 5
7 12 3 7 -4 37 -8 67 -9 31 0 75 -2 99 -3 l42 -2 0 -40 c0 -22 -4 -40 -9 -40
-5 0 -12 -24 -15 -53 -15 -111 -18 -127 -27 -127 -5 0 -9 -18 -9 -40 0 -22 -4
-40 -10 -40 -5 0 -10 -18 -10 -40 0 -22 -4 -40 -10 -40 -5 0 -10 -13 -10 -30
0 -16 -9 -45 -20 -65 -11 -20 -20 -53 -20 -75 0 -21 -5 -42 -11 -45 -6 -4 -8
-13 -5 -21 3 -8 -1 -34 -8 -57 -27 -84 -16 -317 16 -317 4 0 8 -5 8 -10 0 -19
60 -77 103 -99 81 -41 202 -64 336 -64 87 0 126 3 129 11 2 7 19 12 39 12 26
0 36 5 40 20 3 11 8 20 12 20 13 0 71 56 71 68 0 7 5 12 10 12 6 0 10 9 10 20
0 11 5 20 10 20 6 0 10 62 10 165 0 103 -4 165 -10 165 -6 0 -10 32 -10 75 0
43 -4 75 -10 75 -5 0 -10 16 -10 35 0 19 -4 35 -10 35 -5 0 -10 20 -10 45 0
25 -4 45 -9 45 -9 0 -18 53 -27 165 -3 39 -10 71 -15 73 -5 2 -9 26 -9 53 0
27 -4 49 -10 49 -5 0 -10 9 -10 20 0 18 7 20 69 20 l69 0 6 -73 c7 -99 16
-160 27 -172 5 -5 9 -24 9 -42 0 -18 4 -41 9 -51 5 -9 22 -52 37 -95 15 -43
31 -80 35 -83 5 -3 9 -14 9 -25 0 -10 9 -29 19 -41 11 -13 29 -34 40 -47 12
-13 21 -29 21 -36 0 -7 14 -23 31 -35 18 -14 29 -31 26 -40 -3 -11 2 -16 17
-16 16 1 20 -4 18 -23 -2 -18 2 -22 14 -17 21 8 74 -15 74 -32 0 -7 8 -16 18
-19 9 -4 24 -15 33 -25 9 -10 24 -18 33 -18 9 0 16 -4 16 -10 0 -5 14 -10 30
-10 17 0 30 -4 30 -10 0 -5 7 -10 15 -10 8 0 15 -4 15 -10 0 -5 18 -10 40 -10
22 0 40 -4 40 -10 0 -5 14 -10 30 -10 17 0 30 -4 30 -10 0 -6 28 -10 64 -10
36 0 68 -4 71 -10 8 -13 172 -13 180 0 3 6 40 10 81 10 43 0 74 4 74 10 0 6
11 10 25 10 14 0 25 5 25 10 0 6 18 10 40 10 29 0 43 5 52 20 7 11 23 20 35
20 13 0 23 5 23 10 0 6 9 10 20 10 11 0 20 5 20 10 0 6 9 10 20 10 11 0 20 5
20 10 0 6 9 10 20 10 13 0 20 7 20 20 0 11 5 20 10 20 6 0 21 10 34 23 13 12
32 29 42 38 11 9 35 35 54 59 19 24 50 58 68 77 17 19 32 39 32 44 0 18 32 59
46 59 9 0 14 11 14 28 0 16 8 34 20 42 11 8 20 22 20 32 0 10 5 18 11 18 6 0
9 6 6 13 -2 6 7 22 21 35 18 17 23 31 20 52 -3 21 2 33 19 46 19 14 24 26 21
52 -2 23 3 38 14 46 11 8 20 38 27 85 5 41 15 79 20 84 6 6 11 28 11 48 0 21
5 41 10 44 15 9 12 256 -3 275 -24 29 -57 40 -119 40 -46 0 -70 -6 -87 -19
-29 -22 -51 -87 -51 -153 0 -27 -4 -48 -10 -48 -5 0 -10 -9 -10 -20 0 -11 -4
-20 -10 -20 -5 0 -10 -16 -10 -35 0 -19 -3 -35 -7 -35 -9 0 -33 -48 -33 -65 0
-15 -34 -55 -46 -55 -5 0 -16 -9 -24 -20 -8 -11 -19 -20 -25 -20 -6 0 -17 -9
-25 -20 -8 -11 -20 -20 -27 -20 -7 0 -13 -4 -13 -10 0 -5 -9 -10 -20 -10 -11
0 -20 -4 -20 -10 0 -14 -367 -14 -375 0 -3 6 -14 10 -24 10 -23 0 -88 56 -168
145 -13 13 -23 36 -23 50 0 14 -3 25 -7 25 -5 0 -13 11 -19 24 -11 24 -10 25
60 46 138 40 271 84 280 92 6 4 18 8 28 8 10 0 18 5 18 10 0 6 11 10 25 10 14
0 25 5 25 10 0 6 9 10 20 10 11 0 20 5 20 10 0 6 9 10 20 10 11 0 20 5 20 10
0 6 11 10 25 10 14 0 25 5 25 10 0 6 7 10 15 10 8 0 15 5 15 10 0 6 7 10 15
10 8 0 15 5 15 10 0 6 9 10 20 10 11 0 20 5 20 10 0 6 7 10 15 10 8 0 15 5 15
10 0 6 7 10 15 10 8 0 15 5 15 10 0 6 7 10 15 10 8 0 15 5 15 10 0 6 7 10 15
10 8 0 15 5 15 10 0 6 5 10 10 10 6 0 21 10 34 23 13 12 43 38 67 57 119 96
309 339 309 396 0 7 5 14 10 14 6 0 10 9 10 19 0 11 3 21 8 23 10 4 42 98 42
123 0 15 3 17 9 7 5 -8 6 7 3 37 -3 31 0 56 7 65 15 18 17 345 3 372 -6 10
-16 52 -22 92 -7 39 -16 72 -21 72 -5 0 -9 6 -9 13 0 8 -6 27 -14 43 -8 16
-23 50 -35 76 -11 25 -26 52 -33 60 -7 7 -26 33 -43 58 -43 64 -127 151 -225
233 -47 40 -86 75 -88 80 -2 4 -10 7 -18 7 -8 0 -14 5 -14 10 0 6 -7 10 -15
10 -8 0 -15 5 -15 10 0 6 -7 10 -15 10 -8 0 -15 5 -15 10 0 6 -9 10 -20 10
-11 0 -20 5 -20 10 0 6 -6 10 -12 10 -7 0 -24 9 -38 20 -14 11 -33 20 -42 20
-10 0 -18 5 -18 10 0 6 -9 10 -20 10 -11 0 -20 5 -20 10 0 6 -9 10 -20 10 -11
0 -20 5 -20 10 0 6 -13 10 -30 10 -16 0 -30 5 -30 10 0 6 -13 10 -30 10 -16 0
-30 5 -30 10 0 6 -13 10 -30 10 -16 0 -30 5 -30 10 0 6 -22 10 -50 10 -27 0
-50 5 -50 10 0 6 -18 10 -40 10 -22 0 -40 5 -40 10 0 6 -9 10 -20 10 -17 0
-20 7 -20 40 0 37 2 40 19 30 13 -6 178 -10 469 -10 433 0 548 6 580 32 9 8
12 92 12 359 l0 349 -28 30 -27 29 -455 6 c-702 9 -1946 16 -1951 11z m631
-854 c0 -60 -15 -82 -54 -82 -14 0 -26 -4 -26 -10 0 -5 -11 -10 -25 -10 -14 0
-25 -4 -25 -10 0 -5 -6 -10 -13 -10 -18 0 -67 -24 -67 -32 0 -5 -7 -8 -15 -8
-8 0 -15 -4 -15 -10 0 -5 -9 -10 -20 -10 -11 0 -20 -4 -20 -10 0 -5 -7 -10
-15 -10 -8 0 -15 -4 -15 -10 0 -5 -7 -10 -15 -10 -8 0 -15 -4 -15 -10 0 -5 -5
-10 -12 -10 -14 0 -198 -189 -198 -203 0 -5 -8 -17 -19 -26 -30 -26 -121 -194
-121 -223 0 -9 -5 -20 -11 -23 -6 -4 -8 -13 -5 -20 2 -7 -1 -16 -9 -19 -8 -3
-14 -13 -13 -23 0 -17 -16 -71 -32 -103 -4 -9 -11 -40 -15 -70 -4 -30 -11 -59
-15 -65 -12 -14 -32 -208 -30 -287 1 -37 -3 -69 -9 -73 -13 -7 -15 -491 -3
-499 9 -5 12 -63 19 -382 l4 -191 -55 8 c-31 4 -101 9 -156 11 -112 3 -118 8
-98 68 11 34 23 136 34 290 3 41 10 79 15 84 5 6 9 58 9 117 0 61 4 111 10
114 6 4 10 55 10 120 0 65 4 116 10 120 6 3 10 48 10 101 0 56 4 94 10 94 6 0
10 47 10 120 0 73 4 120 10 120 6 0 10 35 10 85 0 50 4 85 10 85 6 0 10 58 10
155 0 97 4 155 10 155 6 0 10 18 10 40 0 22 5 40 10 40 6 0 10 63 10 170 0
107 4 170 10 170 6 0 10 43 10 108 0 62 4 112 11 119 7 7 154 10 450 9 l439 0
0 -54z m741 -382 c10 0 19 -4 19 -10 0 -5 7 -10 15 -10 8 0 15 -4 15 -10 0 -5
7 -10 15 -10 8 0 15 -4 15 -10 0 -5 7 -10 15 -10 8 0 15 -4 15 -8 0 -4 14 -16
30 -25 17 -10 30 -22 30 -27 0 -6 8 -19 18 -31 9 -11 27 -33 39 -47 13 -15 23
-31 23 -36 0 -5 8 -16 18 -25 22 -21 62 -94 62 -115 0 -9 4 -16 8 -16 8 0 26
-59 37 -120 2 -14 10 -50 16 -80 20 -93 12 -367 -12 -396 -5 -6 -9 -22 -8 -35
1 -34 -19 -107 -42 -152 -10 -22 -19 -45 -19 -53 0 -8 -4 -14 -10 -14 -5 0
-10 -9 -10 -20 0 -11 -4 -20 -9 -20 -5 0 -11 -8 -14 -17 -12 -36 -47 -87 -114
-165 -24 -27 -43 -53 -43 -58 0 -6 -7 -10 -15 -10 -8 0 -15 -4 -15 -8 0 -14
-36 -52 -50 -52 -14 0 -50 -38 -50 -52 0 -4 -6 -8 -13 -8 -7 0 -19 -9 -27 -20
-8 -11 -20 -20 -27 -20 -7 0 -13 -4 -13 -10 0 -5 -8 -10 -19 -10 -15 0 -19 11
-25 65 -4 36 -3 71 0 77 4 6 11 115 16 242 11 302 17 399 29 411 5 5 9 61 9
125 0 64 4 120 9 126 5 5 12 47 14 94 2 47 12 162 21 255 8 94 16 208 17 255
0 47 3 79 6 73 2 -7 13 -13 24 -13z m-791 -224 c-5 -5 -10 -53 -10 -108 0 -55
-4 -98 -9 -98 -6 0 -12 -55 -15 -122 -3 -68 -10 -172 -15 -233 -56 -621 -78
-902 -88 -1122 l-5 -141 -37 -6 c-20 -3 -55 -9 -78 -12 l-43 -7 0 272 c0 174
-4 271 -10 271 -6 0 -10 43 -10 109 0 59 -5 132 -10 162 -7 37 -7 55 0 57 6 2
10 64 10 163 0 99 4 159 10 159 6 0 10 38 10 95 0 57 4 95 10 95 6 0 10 20 10
45 0 25 5 45 10 45 6 0 10 20 10 45 0 25 5 45 11 45 5 0 8 4 4 9 -3 5 2 16 10
24 8 9 15 27 15 41 0 14 5 28 10 31 6 3 10 15 10 26 0 10 5 19 10 19 6 0 10 8
10 18 0 23 24 74 62 129 15 23 28 45 28 48 0 4 21 27 48 51 l47 44 3 -72 c2
-40 -2 -76 -8 -82z m-1425 -43 c-3 -21 -10 -72 -15 -113 -5 -41 -15 -95 -21
-120 -6 -25 -14 -74 -18 -110 -4 -36 -15 -85 -24 -110 -9 -25 -17 -68 -17 -97
0 -52 -16 -103 -32 -103 -4 0 -8 -22 -8 -50 0 -27 -4 -50 -10 -50 -5 0 -10 -9
-10 -20 0 -11 -4 -20 -10 -20 -5 0 -10 -22 -10 -50 0 -27 -4 -50 -10 -50 -5 0
-10 -6 -10 -12 0 -7 -9 -24 -20 -38 -11 -14 -20 -36 -20 -51 0 -28 -21 -79
-32 -79 -5 0 -8 -8 -8 -18 0 -22 -22 -72 -32 -72 -5 0 -8 -13 -8 -30 0 -16 -4
-30 -10 -30 -5 0 -10 -9 -10 -20 0 -11 -4 -20 -10 -20 -5 0 -10 -9 -10 -20 0
-11 -6 -20 -12 -21 -10 0 -10 -2 -1 -5 8 -4 1 -16 -18 -36 -16 -17 -29 -40
-29 -50 0 -11 -7 -26 -15 -34 -13 -13 -20 -10 -59 30 -25 24 -57 68 -73 96
-15 28 -36 66 -46 83 -9 18 -20 49 -23 70 -4 20 -11 37 -16 37 -5 0 -6 9 -3
20 4 12 2 27 -5 35 -8 9 -10 51 -6 132 10 221 28 322 76 418 16 33 30 66 30
73 0 6 5 12 10 12 6 0 10 9 10 20 0 11 4 20 9 20 5 0 12 9 16 19 3 11 18 33
33 50 39 43 62 74 62 83 0 4 6 8 14 8 8 0 18 9 21 20 3 11 10 20 14 20 5 0 22
14 39 30 18 17 36 30 42 30 5 0 10 5 10 10 0 6 7 10 15 10 8 0 15 5 15 10 0 6
7 10 15 10 8 0 15 5 15 10 0 6 7 10 15 10 8 0 15 4 15 8 0 5 16 14 35 22 19 8
35 17 35 22 0 4 8 8 18 9 9 0 31 9 47 19 47 29 56 26 50 -17z"/>
<path d="M5042 3010 c0 -14 2 -19 5 -12 2 6 2 18 0 25 -3 6 -5 1 -5 -13z"/>
</g>
</svg>
